<svg width="150" height="150" xmlns="http://www.w3.org/2000/svg">
  <circle cx="60" cy="88" r="5" fill="pink" />
  <circle cx="58" cy="83" r="5" fill="pink" />
  <circle cx="55" cy="95" r="5" fill="pink" />
  <circle cx="89" cy="55" r="5" fill="pink" />
  <circle cx="70" cy="101" r="5" fill="pink" />
  <circle cx="91" cy="89" r="5" fill="pink" />
  <circle cx="55" cy="50" r="5" fill="pink" />
  <circle cx="82" cy="85" r="5" fill="pink" />
  <circle cx="82" cy="61" r="5" fill="pink" />
  <circle cx="86" cy="32" r="5" fill="pink" />
  <circle cx="101" cy="60" r="5" fill="pink" />
  <circle cx="39" cy="76" r="5" fill="pink" />
  <circle cx="81" cy="87" r="5" fill="pink" />
  <circle cx="65" cy="79" r="5" fill="pink" />
  <circle cx="77" cy="63" r="5" fill="pink" />
  <circle cx="91" cy="71" r="5" fill="pink" />
  <circle cx="66" cy="83" r="5" fill="pink" />
  <circle cx="64" cy="67" r="5" fill="pink" />
  <circle cx="76" cy="27" r="5" fill="pink" />
  <circle cx="90" cy="58" r="5" fill="pink" />
  <circle cx="86" cy="75" r="5" fill="pink" />
  <circle cx="71" cy="62" r="5" fill="pink" />
  <circle cx="88" cy="51" r="5" fill="pink" />
  <circle cx="90" cy="44" r="5" fill="pink" />
  <circle cx="83" cy="67" r="5" fill="pink" />
  <circle cx="92" cy="74" r="5" fill="pink" />
  <circle cx="79" cy="96" r="5" fill="pink" />
  <circle cx="55" cy="72" r="5" fill="pink" />
  <circle cx="74" cy="82" r="5" fill="pink" />
  <circle cx="90" cy="82" r="5" fill="pink" />
  <circle cx="74" cy="38" r="5" fill="pink" />
  <circle cx="76" cy="57" r="5" fill="pink" />
  <circle cx="52" cy="87" r="5" fill="pink" />
  <circle cx="40" cy="93" r="5" fill="pink" />
  <circle cx="93" cy="68" r="5" fill="pink" />
  <circle cx="49" cy="74" r="5" fill="pink" />
  <circle cx="80" cy="44" r="5" fill="pink" />
  <circle cx="41" cy="72" r="5" fill="pink" />
  <circle cx="71" cy="91" r="5" fill="pink" />
  <circle cx="104" cy="106" r="5" fill="pink" />
  <circle cx="60" cy="82" r="5" fill="pink" />
  <circle cx="45" cy="78" r="5" fill="pink" />
  <circle cx="45" cy="105" r="5" fill="pink" />
  <circle cx="84" cy="40" r="5" fill="pink" />
  <circle cx="91" cy="91" r="5" fill="pink" />
  <circle cx="70" cy="85" r="5" fill="pink" />
  <circle cx="63" cy="81" r="5" fill="pink" />
  <circle cx="43" cy="69" r="5" fill="pink" />
  <circle cx="98" cy="43" r="5" fill="pink" />
  <circle cx="101" cy="71" r="5" fill="pink" />
  <circle cx="62" cy="63" r="5" fill="pink" />
  <circle cx="72" cy="82" r="5" fill="pink" />
  <circle cx="89" cy="94" r="5" fill="pink" />
  <circle cx="70" cy="64" r="5" fill="pink" />
  <circle cx="108" cy="65" r="5" fill="pink" />
  <circle cx="46" cy="64" r="5" fill="pink" />
  <circle cx="52" cy="78" r="5" fill="pink" />
  <circle cx="86" cy="53" r="5" fill="pink" />
  <circle cx="64" cy="47" r="5" fill="pink" />
  <circle cx="80" cy="91" r="5" fill="pink" />
  <circle cx="66" cy="99" r="5" fill="pink" />
  <circle cx="71" cy="58" r="5" fill="pink" />
  <circle cx="69" cy="66" r="5" fill="pink" />
  <circle cx="66" cy="101" r="5" fill="pink" />
  <circle cx="63" cy="110" r="5" fill="pink" />
  <circle cx="91" cy="88" r="5" fill="pink" />
  <circle cx="64" cy="83" r="5" fill="pink" />
  <circle cx="76" cy="27" r="5" fill="pink" />
  <circle cx="73" cy="94" r="5" fill="pink" />
  <circle cx="77" cy="67" r="5" fill="pink" />
  <circle cx="98" cy="58" r="5" fill="pink" />
  <circle cx="100" cy="54" r="5" fill="pink" />
  <circle cx="44" cy="87" r="5" fill="pink" />
  <circle cx="82" cy="86" r="5" fill="pink" />
  <circle cx="64" cy="65" r="5" fill="pink" />
  <circle cx="101" cy="88" r="5" fill="pink" />
  <circle cx="84" cy="72" r="5" fill="pink" />
  <circle cx="52" cy="91" r="5" fill="pink" />
  <circle cx="85" cy="101" r="5" fill="pink" />
  <circle cx="87" cy="97" r="5" fill="pink" />
</svg>
