<svg width="150" height="150" xmlns="http://www.w3.org/2000/svg">
  <circle cx="72" cy="73" r="5" fill="green" />
  <circle cx="113" cy="46" r="5" fill="green" />
  <circle cx="60" cy="88" r="5" fill="green" />
  <circle cx="84" cy="52" r="5" fill="green" />
  <circle cx="45" cy="57" r="5" fill="green" />
  <circle cx="60" cy="90" r="5" fill="green" />
  <circle cx="103" cy="84" r="5" fill="green" />
  <circle cx="92" cy="79" r="5" fill="green" />
  <circle cx="56" cy="65" r="5" fill="green" />
  <circle cx="65" cy="79" r="5" fill="green" />
  <circle cx="72" cy="54" r="5" fill="green" />
  <circle cx="68" cy="58" r="5" fill="green" />
  <circle cx="94" cy="71" r="5" fill="green" />
  <circle cx="55" cy="40" r="5" fill="green" />
  <circle cx="101" cy="44" r="5" fill="green" />
  <circle cx="60" cy="74" r="5" fill="green" />
  <circle cx="76" cy="28" r="5" fill="green" />
  <circle cx="66" cy="75" r="5" fill="green" />
  <circle cx="62" cy="85" r="5" fill="green" />
  <circle cx="58" cy="76" r="5" fill="green" />
  <circle cx="93" cy="54" r="5" fill="green" />
  <circle cx="77" cy="54" r="5" fill="green" />
  <circle cx="66" cy="59" r="5" fill="green" />
  <circle cx="65" cy="45" r="5" fill="green" />
  <circle cx="84" cy="51" r="5" fill="green" />
  <circle cx="46" cy="34" r="5" fill="green" />
  <circle cx="70" cy="68" r="5" fill="green" />
  <circle cx="73" cy="98" r="5" fill="green" />
  <circle cx="53" cy="43" r="5" fill="green" />
  <circle cx="73" cy="70" r="5" fill="green" />
  <circle cx="76" cy="82" r="5" fill="green" />
  <circle cx="63" cy="79" r="5" fill="green" />
  <circle cx="84" cy="58" r="5" fill="green" />
  <circle cx="78" cy="93" r="5" fill="green" />
  <circle cx="72" cy="74" r="5" fill="green" />
  <circle cx="61" cy="92" r="5" fill="green" />
  <circle cx="90" cy="64" r="5" fill="green" />
  <circle cx="79" cy="67" r="5" fill="green" />
  <circle cx="67" cy="69" r="5" fill="green" />
  <circle cx="39" cy="61" r="5" fill="green" />
  <circle cx="101" cy="41" r="5" fill="green" />
  <circle cx="63" cy="56" r="5" fill="green" />
  <circle cx="50" cy="40" r="5" fill="green" />
  <circle cx="63" cy="70" r="5" fill="green" />
  <circle cx="61" cy="55" r="5" fill="green" />
  <circle cx="31" cy="80" r="5" fill="green" />
  <circle cx="57" cy="67" r="5" fill="green" />
  <circle cx="81" cy="41" r="5" fill="green" />
  <circle cx="57" cy="65" r="5" fill="green" />
  <circle cx="39" cy="95" r="5" fill="green" />
  <circle cx="63" cy="100" r="5" fill="green" />
  <circle cx="80" cy="60" r="5" fill="green" />
  <circle cx="67" cy="91" r="5" fill="green" />
  <circle cx="102" cy="43" r="5" fill="green" />
  <circle cx="91" cy="94" r="5" fill="green" />
  <circle cx="59" cy="76" r="5" fill="green" />
  <circle cx="80" cy="65" r="5" fill="green" />
  <circle cx="75" cy="89" r="5" fill="green" />
  <circle cx="95" cy="84" r="5" fill="green" />
  <circle cx="72" cy="78" r="5" fill="green" />
  <circle cx="101" cy="47" r="5" fill="green" />
  <circle cx="48" cy="54" r="5" fill="green" />
  <circle cx="119" cy="82" r="5" fill="green" />
  <circle cx="84" cy="49" r="5" fill="green" />
  <circle cx="71" cy="77" r="5" fill="green" />
  <circle cx="75" cy="102" r="5" fill="green" />
  <circle cx="67" cy="78" r="5" fill="green" />
  <circle cx="79" cy="58" r="5" fill="green" />
  <circle cx="61" cy="80" r="5" fill="green" />
  <circle cx="76" cy="47" r="5" fill="green" />
  <circle cx="76" cy="64" r="5" fill="green" />
  <circle cx="49" cy="107" r="5" fill="green" />
  <circle cx="88" cy="76" r="5" fill="green" />
  <circle cx="77" cy="50" r="5" fill="green" />
  <circle cx="87" cy="50" r="5" fill="green" />
  <circle cx="79" cy="65" r="5" fill="green" />
  <circle cx="58" cy="76" r="5" fill="green" />
  <circle cx="57" cy="69" r="5" fill="green" />
  <circle cx="49" cy="49" r="5" fill="green" />
  <circle cx="36" cy="89" r="5" fill="green" />
</svg>
