<svg width="150" height="150" xmlns="http://www.w3.org/2000/svg">
  <circle cx="91" cy="85" r="5" fill="purple" />
  <circle cx="67" cy="88" r="5" fill="purple" />
  <circle cx="45" cy="58" r="5" fill="purple" />
  <circle cx="73" cy="34" r="5" fill="purple" />
  <circle cx="88" cy="102" r="5" fill="purple" />
  <circle cx="70" cy="76" r="5" fill="purple" />
  <circle cx="86" cy="76" r="5" fill="purple" />
  <circle cx="77" cy="56" r="5" fill="purple" />
  <circle cx="91" cy="115" r="5" fill="purple" />
  <circle cx="105" cy="49" r="5" fill="purple" />
  <circle cx="31" cy="102" r="5" fill="purple" />
  <circle cx="107" cy="64" r="5" fill="purple" />
  <circle cx="80" cy="119" r="5" fill="purple" />
  <circle cx="101" cy="87" r="5" fill="purple" />
  <circle cx="82" cy="84" r="5" fill="purple" />
  <circle cx="71" cy="78" r="5" fill="purple" />
  <circle cx="75" cy="53" r="5" fill="purple" />
  <circle cx="76" cy="69" r="5" fill="purple" />
  <circle cx="53" cy="63" r="5" fill="purple" />
  <circle cx="115" cy="75" r="5" fill="purple" />
  <circle cx="98" cy="82" r="5" fill="purple" />
  <circle cx="67" cy="90" r="5" fill="purple" />
  <circle cx="59" cy="67" r="5" fill="purple" />
  <circle cx="74" cy="88" r="5" fill="purple" />
  <circle cx="88" cy="75" r="5" fill="purple" />
  <circle cx="65" cy="59" r="5" fill="purple" />
  <circle cx="90" cy="83" r="5" fill="purple" />
  <circle cx="108" cy="52" r="5" fill="purple" />
  <circle cx="54" cy="41" r="5" fill="purple" />
  <circle cx="81" cy="74" r="5" fill="purple" />
  <circle cx="78" cy="101" r="5" fill="purple" />
  <circle cx="60" cy="78" r="5" fill="purple" />
  <circle cx="53" cy="59" r="5" fill="purple" />
  <circle cx="77" cy="22" r="5" fill="purple" />
  <circle cx="54" cy="54" r="5" fill="purple" />
  <circle cx="69" cy="125" r="5" fill="purple" />
  <circle cx="62" cy="80" r="5" fill="purple" />
  <circle cx="84" cy="91" r="5" fill="purple" />
  <circle cx="55" cy="60" r="5" fill="purple" />
  <circle cx="74" cy="89" r="5" fill="purple" />
  <circle cx="67" cy="57" r="5" fill="purple" />
  <circle cx="44" cy="99" r="5" fill="purple" />
  <circle cx="66" cy="96" r="5" fill="purple" />
  <circle cx="72" cy="64" r="5" fill="purple" />
  <circle cx="100" cy="106" r="5" fill="purple" />
  <circle cx="90" cy="80" r="5" fill="purple" />
  <circle cx="68" cy="52" r="5" fill="purple" />
  <circle cx="85" cy="63" r="5" fill="purple" />
  <circle cx="46" cy="84" r="5" fill="purple" />
  <circle cx="57" cy="84" r="5" fill="purple" />
  <circle cx="72" cy="85" r="5" fill="purple" />
  <circle cx="90" cy="85" r="5" fill="purple" />
  <circle cx="80" cy="101" r="5" fill="purple" />
  <circle cx="59" cy="118" r="5" fill="purple" />
  <circle cx="81" cy="60" r="5" fill="purple" />
  <circle cx="119" cy="108" r="5" fill="purple" />
  <circle cx="114" cy="40" r="5" fill="purple" />
  <circle cx="65" cy="57" r="5" fill="purple" />
  <circle cx="75" cy="58" r="5" fill="purple" />
  <circle cx="58" cy="86" r="5" fill="purple" />
  <circle cx="111" cy="74" r="5" fill="purple" />
  <circle cx="35" cy="89" r="5" fill="purple" />
  <circle cx="58" cy="74" r="5" fill="purple" />
  <circle cx="105" cy="68" r="5" fill="purple" />
  <circle cx="56" cy="68" r="5" fill="purple" />
  <circle cx="83" cy="69" r="5" fill="purple" />
  <circle cx="49" cy="34" r="5" fill="purple" />
  <circle cx="73" cy="71" r="5" fill="purple" />
  <circle cx="82" cy="64" r="5" fill="purple" />
  <circle cx="70" cy="91" r="5" fill="purple" />
  <circle cx="89" cy="61" r="5" fill="purple" />
  <circle cx="48" cy="84" r="5" fill="purple" />
  <circle cx="98" cy="71" r="5" fill="purple" />
  <circle cx="89" cy="28" r="5" fill="purple" />
  <circle cx="60" cy="30" r="5" fill="purple" />
  <circle cx="71" cy="82" r="5" fill="purple" />
  <circle cx="72" cy="104" r="5" fill="purple" />
  <circle cx="41" cy="94" r="5" fill="purple" />
  <circle cx="88" cy="84" r="5" fill="purple" />
  <circle cx="56" cy="38" r="5" fill="purple" />
</svg>
