<svg width="150" height="150" xmlns="http://www.w3.org/2000/svg">
  <circle cx="81" cy="59" r="5" fill="blue" />
  <circle cx="57" cy="77" r="5" fill="blue" />
  <circle cx="98" cy="80" r="5" fill="blue" />
  <circle cx="59" cy="90" r="5" fill="blue" />
  <circle cx="83" cy="81" r="5" fill="blue" />
  <circle cx="87" cy="76" r="5" fill="blue" />
  <circle cx="68" cy="58" r="5" fill="blue" />
  <circle cx="60" cy="104" r="5" fill="blue" />
  <circle cx="61" cy="76" r="5" fill="blue" />
  <circle cx="91" cy="66" r="5" fill="blue" />
  <circle cx="83" cy="70" r="5" fill="blue" />
  <circle cx="60" cy="118" r="5" fill="blue" />
  <circle cx="109" cy="90" r="5" fill="blue" />
  <circle cx="68" cy="67" r="5" fill="blue" />
  <circle cx="83" cy="68" r="5" fill="blue" />
  <circle cx="95" cy="76" r="5" fill="blue" />
  <circle cx="62" cy="44" r="5" fill="blue" />
  <circle cx="47" cy="73" r="5" fill="blue" />
  <circle cx="93" cy="59" r="5" fill="blue" />
  <circle cx="90" cy="59" r="5" fill="blue" />
  <circle cx="61" cy="51" r="5" fill="blue" />
  <circle cx="80" cy="64" r="5" fill="blue" />
  <circle cx="93" cy="68" r="5" fill="blue" />
  <circle cx="70" cy="90" r="5" fill="blue" />
  <circle cx="66" cy="58" r="5" fill="blue" />
  <circle cx="78" cy="88" r="5" fill="blue" />
  <circle cx="70" cy="46" r="5" fill="blue" />
  <circle cx="82" cy="98" r="5" fill="blue" />
  <circle cx="54" cy="66" r="5" fill="blue" />
  <circle cx="60" cy="95" r="5" fill="blue" />
  <circle cx="78" cy="76" r="5" fill="blue" />
  <circle cx="99" cy="75" r="5" fill="blue" />
  <circle cx="39" cy="73" r="5" fill="blue" />
  <circle cx="54" cy="46" r="5" fill="blue" />
  <circle cx="103" cy="47" r="5" fill="blue" />
  <circle cx="118" cy="79" r="5" fill="blue" />
  <circle cx="75" cy="70" r="5" fill="blue" />
  <circle cx="100" cy="83" r="5" fill="blue" />
  <circle cx="67" cy="76" r="5" fill="blue" />
  <circle cx="92" cy="51" r="5" fill="blue" />
  <circle cx="72" cy="94" r="5" fill="blue" />
  <circle cx="53" cy="97" r="5" fill="blue" />
  <circle cx="89" cy="67" r="5" fill="blue" />
  <circle cx="85" cy="65" r="5" fill="blue" />
  <circle cx="70" cy="96" r="5" fill="blue" />
  <circle cx="76" cy="77" r="5" fill="blue" />
  <circle cx="78" cy="53" r="5" fill="blue" />
  <circle cx="73" cy="99" r="5" fill="blue" />
  <circle cx="113" cy="92" r="5" fill="blue" />
  <circle cx="57" cy="55" r="5" fill="blue" />
  <circle cx="79" cy="76" r="5" fill="blue" />
  <circle cx="89" cy="77" r="5" fill="blue" />
  <circle cx="78" cy="79" r="5" fill="blue" />
  <circle cx="84" cy="101" r="5" fill="blue" />
  <circle cx="82" cy="47" r="5" fill="blue" />
  <circle cx="59" cy="46" r="5" fill="blue" />
  <circle cx="58" cy="86" r="5" fill="blue" />
  <circle cx="68" cy="56" r="5" fill="blue" />
  <circle cx="99" cy="29" r="5" fill="blue" />
  <circle cx="59" cy="42" r="5" fill="blue" />
  <circle cx="96" cy="72" r="5" fill="blue" />
  <circle cx="110" cy="60" r="5" fill="blue" />
  <circle cx="61" cy="65" r="5" fill="blue" />
  <circle cx="52" cy="58" r="5" fill="blue" />
  <circle cx="84" cy="52" r="5" fill="blue" />
  <circle cx="125" cy="79" r="5" fill="blue" />
  <circle cx="55" cy="81" r="5" fill="blue" />
  <circle cx="80" cy="77" r="5" fill="blue" />
  <circle cx="98" cy="53" r="5" fill="blue" />
  <circle cx="120" cy="70" r="5" fill="blue" />
  <circle cx="77" cy="39" r="5" fill="blue" />
  <circle cx="63" cy="37" r="5" fill="blue" />
  <circle cx="77" cy="72" r="5" fill="blue" />
  <circle cx="87" cy="73" r="5" fill="blue" />
  <circle cx="60" cy="86" r="5" fill="blue" />
  <circle cx="58" cy="56" r="5" fill="blue" />
  <circle cx="48" cy="53" r="5" fill="blue" />
  <circle cx="109" cy="77" r="5" fill="blue" />
  <circle cx="58" cy="51" r="5" fill="blue" />
  <circle cx="59" cy="94" r="5" fill="blue" />
</svg>
